<svg width="46" height="46" viewBox="0 0 46 46" fill="none" xmlns="http://www.w3.org/2000/svg">
<circle cx="22.88" cy="22.88" r="22.88" fill="#E9EEFF"/>
<path d="M11 14.381C11 14.1707 11.1707 14 11.381 14C11.5913 14 11.762 14.1707 11.762 14.381V31.2341H34.7489C34.9592 31.2341 35.1299 31.4048 35.1299 31.6151C35.1299 31.8254 34.9592 31.9961 34.7489 31.9961H11.381C11.1707 31.9961 11 31.8254 11 31.6151V14.381ZM31.3994 17.6423C31.8077 17.6423 32.1791 17.8088 32.4485 18.0776L32.4509 18.08C32.7191 18.3491 32.8853 18.7202 32.8853 19.1282C32.8853 19.5365 32.7188 19.9079 32.45 20.1773L32.4476 20.1797C32.1785 20.4479 31.8074 20.6141 31.3994 20.6141C31.0871 20.6141 30.7964 20.5166 30.5564 20.3507L26.3375 23.9645C26.4326 24.1601 26.4857 24.3791 26.4857 24.6101C26.4857 25.0184 26.3192 25.3898 26.0504 25.6592L26.048 25.6616C25.7789 25.9298 25.4078 26.096 24.9998 26.096C24.5915 26.096 24.2201 25.9295 23.9507 25.6607L23.9483 25.6583C23.6801 25.3892 23.5139 25.0181 23.5139 24.6101C23.5139 24.4427 23.5415 24.2819 23.5931 24.1313L21.47 22.7201C21.2075 22.9532 20.8622 23.0948 20.4854 23.0948C20.225 23.0948 19.9796 23.027 19.766 22.9082L15.9983 26.8382C16.1366 27.0638 16.2164 27.329 16.2164 27.6116C16.2164 28.0199 16.0499 28.3913 15.7811 28.6607L15.7787 28.6631C15.5096 28.9313 15.1385 29.0975 14.7305 29.0975C14.3222 29.0975 13.9508 28.931 13.6814 28.6622L13.679 28.6598C13.4108 28.3907 13.2446 28.0196 13.2446 27.6116C13.2446 27.2033 13.4111 26.8319 13.6799 26.5625L13.6823 26.5601C13.9514 26.2919 14.3225 26.1257 14.7305 26.1257C14.9909 26.1257 15.2363 26.1935 15.4499 26.3123L19.2176 22.3823C19.0793 22.1567 18.9995 21.8915 18.9995 21.6089C18.9995 21.2006 19.166 20.8292 19.4348 20.5598L19.4372 20.5574C19.7063 20.2892 20.0774 20.123 20.4854 20.123C20.8937 20.123 21.2651 20.2895 21.5345 20.5583L21.5369 20.5607C21.8051 20.8298 21.9713 21.2009 21.9713 21.6089C21.9713 21.7763 21.9437 21.9371 21.8921 22.0877L24.0152 23.4989C24.2777 23.2658 24.623 23.1242 24.9998 23.1242C25.3121 23.1242 25.6028 23.2217 25.8428 23.3876L30.0617 19.7738C29.9666 19.5782 29.9135 19.3592 29.9135 19.1282C29.9135 18.7199 30.08 18.3485 30.3488 18.0791L30.3512 18.0767C30.6203 17.8085 30.9914 17.6423 31.3994 17.6423ZM31.9118 18.6155C31.7813 18.485 31.6001 18.4043 31.3994 18.4043C31.1984 18.4043 31.0172 18.485 30.8876 18.6149C30.7562 18.7463 30.6755 18.9275 30.6755 19.1282C30.6755 19.3292 30.7562 19.5104 30.8861 19.64C31.0172 19.7714 31.1984 19.8521 31.3994 19.8521C31.6001 19.8521 31.7813 19.7714 31.9112 19.6415C32.0426 19.5104 32.1233 19.3292 32.1233 19.1282C32.1233 18.9275 32.0426 18.7463 31.9118 18.6155ZM25.5122 24.0974C25.3817 23.9669 25.2005 23.8862 24.9998 23.8862C24.7988 23.8862 24.6176 23.9669 24.488 24.0968C24.3566 24.2279 24.2759 24.4091 24.2759 24.6101C24.2759 24.8108 24.3566 24.992 24.4865 25.1219C24.6176 25.2533 24.7988 25.334 24.9998 25.334C25.2005 25.334 25.3817 25.2533 25.5116 25.1234C25.643 24.992 25.7237 24.8108 25.7237 24.6101C25.7237 24.4091 25.643 24.2279 25.5122 24.0974ZM20.9978 21.0962C20.8676 20.9657 20.6864 20.885 20.4854 20.885C20.2847 20.885 20.1035 20.9657 19.9736 21.0956C19.8422 21.227 19.7615 21.4082 19.7615 21.6089C19.7615 21.8099 19.8422 21.9911 19.9721 22.1207C20.1035 22.2521 20.2847 22.3328 20.4854 22.3328C20.6864 22.3328 20.8676 22.2521 20.9972 22.1222C21.1286 21.9911 21.2093 21.8099 21.2093 21.6089C21.2093 21.4082 21.1286 21.227 20.9978 21.0962ZM15.2429 27.0989C15.1127 26.9684 14.9315 26.8877 14.7305 26.8877C14.5298 26.8877 14.3486 26.9684 14.2187 27.0983C14.0873 27.2294 14.0066 27.4106 14.0066 27.6116C14.0066 27.8123 14.0873 27.9935 14.2172 28.1234C14.3486 28.2548 14.5298 28.3355 14.7305 28.3355C14.9315 28.3355 15.1127 28.2548 15.2423 28.1249C15.3737 27.9935 15.4544 27.8123 15.4544 27.6116C15.4544 27.4106 15.3737 27.2294 15.2429 27.0989Z" fill="#676EDA"/>
</svg>
